#!OML:ASF I:\Actors\actors\Patient Classification 2\Patient 1\Session 1\actor1.ASF
:FULLY-SPECIFIED
:DEGREES
170
root 0.262877 18.1112 5.76923 -1.25999 -30.5496 4.22526
lowerback 20.9534 -10.3595 8.18543
upperback 2.43221 -11.4519 2.93316
thorax -9.82517 -5.66994 2.10873
lowerneck -20.038 -3.63844 -4.66383
upperneck 24.7215 -3.13436 -2.2772
head 11.4324 -2.20904 -0.558615
rclavicle -1.06549e-013 8.11041e-014
rhumerus -39.2942 -9.79952 -67.5391
rradius 73.9283
rwrist -28.2425
rhand -11.8835 -46.5483
rfingers 7.12502
rthumb 14.1692 -76.0451
lclavicle -1.06549e-013 8.11041e-014
lhumerus -3.85323 -25.6651 104.316
lradius 52.2615
lwrist 24.4141
lhand -12.5626 -33.718
lfingers 7.12502
lthumb 13.5148 -4.17657
rfemur -16.0989 14.8137 5.34313
rtibia 29.3499
rfoot -15.6499 5.02335
rtoes -13.6459
lfemur -8.06956 24.181 -20.0699
ltibia 36.307
lfoot -28.9135 9.38698
ltoes -56.1711
171
root 0.272342 18.1035 5.77785 -1.14432 -30.6554 4.43377
lowerback 20.9903 -10.3948 8.35406
upperback 2.45412 -11.4448 3.0322
thorax -9.83031 -5.66925 2.13079
lowerneck -20.2873 -3.5717 -4.62032
upperneck 24.4716 -2.95222 -2.57269
head 11.3795 -2.15622 -0.646081
rclavicle 5.1684e-014 1.59028e-015
rhumerus -39.006 -9.82548 -67.538
rradius 73.8134
rwrist -28.389
rhand -11.8971 -46.6011
rfingers 7.12502
rthumb 14.1562 -76.0988
lclavicle 5.1684e-014 1.59028e-015
lhumerus -3.56778 -25.4979 104.532
lradius 51.7775
lwrist 24.5016
lhand -12.662 -33.6758
lfingers 7.12502
lthumb 13.419 -4.12799
rfemur -16.553 14.9566 5.01968
rtibia 29.6981
rfoot -15.8177 5.0394
rtoes -13.4787
lfemur -8.41348 24.3956 -20.3924
ltibia 36.4929
lfoot -28.9881 9.28185
ltoes -56.212
172
root 0.281716 18.0959 5.78556 -1.00586 -30.6932 4.59475
lowerback 21.0386 -10.4577 8.57265
upperback 2.45047 -11.4584 3.13572
thorax -9.87991 -5.67939 2.14501
lowerneck -20.4918 -3.48906 -4.66029
upperneck 24.2278 -2.76361 -2.72734
head 11.3247 -2.08998 -0.666087
rclavicle 6.67916e-014 -5.56597e-014
rhumerus -38.83 -9.84355 -67.5588
rradius 73.788
rwrist -28.4165
rhand -11.9651 -46.5782
rfingers 7.12502
rthumb 14.0906 -76.0805
lclavicle 6.67916e-014 -5.56597e-014
lhumerus -3.34451 -25.4142 104.713
lradius 51.3461
lwrist 24.7955
lhand -13.0547 -33.7058
lfingers 7.12502
lthumb 13.0404 -4.13342
rfemur -16.9863 14.9996 4.74345
rtibia 30.046
rfoot -15.9424 5.07789
rtoes -13.7309
lfemur -8.77211 24.5355 -20.6747
ltibia 36.6868
lfoot -29.0726 9.15318
ltoes -56.2109
173
root 0.289678 18.0883 5.79215 -0.883291 -30.699 4.70458
lowerback 21.1358 -10.5307 8.78422
upperback 2.45739 -11.4782 3.26791
thorax -9.93606 -5.69116 2.20314
lowerneck -20.6881 -3.39985 -4.77189
upperneck 23.9286 -2.56023 -2.82114
head 11.2499 -2.01428 -0.648418
rclavicle -3.18055e-014 -2.8625e-014
rhumerus -38.6743 -9.82007 -67.5603
rradius 73.8373
rwrist -28.5283
rhand -11.8431 -46.5012
rfingers 7.12502
rthumb 14.2082 -75.9952
lclavicle -3.18055e-014 -2.8625e-014
lhumerus -3.15434 -25.3028 104.895
lradius 51.0614
lwrist 25.1441
lhand -13.4451 -33.7148
lfingers 7.12502
lthumb 12.6641 -4.11877
rfemur -17.3621 14.9422 4.53937
rtibia 30.3926
rfoot -16.0245 5.12561
rtoes -14.3719
lfemur -9.08201 24.6772 -20.8741
ltibia 36.8846
lfoot -29.153 8.97681
ltoes -56.1893
174
root 0.295006 18.0787 5.79929 -0.804886 -30.6887 4.84679
lowerback 21.1918 -10.5763 8.93003
upperback 2.51009 -11.4872 3.38603
thorax -9.90835 -5.69664 2.26228
lowerneck -20.9644 -3.32225 -4.78219
upperneck 23.6313 -2.36715 -3.04259
head 11.1882 -1.9504 -0.69723
rclavicle 5.36719e-014 0
rhumerus -38.8579 -9.35447 -67.2411
rradius 74.3231
rwrist -29.3801
rhand -11.5928 -46.4699
rfingers 7.12502
rthumb 14.4494 -75.9468
lclavicle 5.36719e-014 0
lhumerus -2.95186 -25.1733 105.082
lradius 50.9068
lwrist 25.3371
lhand -13.5105 -33.6334
lfingers 7.12502
lthumb 12.601 -4.03347
rfemur -17.6911 14.8632 4.31962
rtibia 30.7359
rfoot -16.1044 5.22908
rtoes -14.4257
lfemur -9.34587 24.8132 -21.0818
ltibia 37.0754
lfoot -29.2153 8.82741
ltoes -56.2107
